<svg width="34" height="34" viewBox="0 0 34 34" fill="none" xmlns="http://www.w3.org/2000/svg">
<path d="M13.9832 16.1625C13.9832 16.1625 16.9473 15.9373 16.9473 12.3906C16.9473 8.84681 14.9369 7.0999 11.8642 7.0999L1.33765 7.08325V26.6675H12.109C12.109 26.6675 17.4946 26.8379 17.4946 20.7922C17.4946 20.7922 17.8902 16.1625 13.9832 16.1625ZM5.25449 10.0209H10.6402C10.6402 10.0209 12.483 10.0512 12.483 12.4405C12.483 14.9169 10.6402 14.9169 10.6402 14.9169H5.25449V10.0209ZM11.1298 23.7299H5.25449V17.8546H11.1298C11.1298 17.8546 14.0674 17.8849 14.0674 20.7922C14.0674 23.6995 11.5528 23.7299 11.1298 23.7299Z" fill="#D48E77"/>
<path d="M25.8182 11.9795C18.4613 11.9795 18.4741 19.3236 18.4741 19.3236C18.4741 19.3236 17.9845 26.6677 25.8182 26.6677C25.8182 26.6677 32.6726 26.6677 32.6726 20.7924H28.7558C28.7558 20.7924 28.7558 23.73 25.8182 23.73C25.8182 23.73 22.8805 23.73 22.8805 19.8132C22.8805 19.8132 30.7142 19.8132 32.6726 19.8132C32.6726 17.8548 32.6726 11.9795 25.8182 11.9795ZM22.8805 17.8548C22.8805 17.8548 22.8159 14.9171 25.8182 14.9171C28.8194 14.9171 28.7558 17.8548 28.7558 17.8548H22.8805Z" fill="#D48E77"/>
<path d="M29.7352 9.04175H21.9015V11.0002H29.7352V9.04175Z" fill="#D48E77"/>
</svg>
