<svg width="36" height="34" viewBox="0 0 36 34" fill="none" xmlns="http://www.w3.org/2000/svg">
<path d="M17.6005 2.45288C25.6451 2.45288 32.1539 8.96169 32.1539 16.9941C32.1539 25.0265 25.6451 31.5475 17.6005 31.5475C9.55593 31.5475 3.04712 25.0387 3.04712 17.0063C3.04712 8.97388 9.55593 2.45288 17.6005 2.45288Z" fill="#E7BEB1"/>
<path d="M17.6016 32.5834C8.99636 32.5834 2 25.5993 2 17.0062C2 8.40092 8.99636 1.41675 17.6016 1.41675C26.2069 1.41675 33.2033 8.40092 33.2033 16.994C33.2033 25.5871 26.2069 32.5834 17.6016 32.5834ZM30.7533 19.127C30.3023 18.9808 26.6335 17.896 22.4528 18.5542C24.1958 23.3322 24.9027 27.2326 25.0368 28.037C28.0352 26.0259 30.1683 22.8324 30.7533 19.127ZM22.8062 29.2681C22.6112 28.098 21.8311 24.0269 19.9663 19.1758C19.9419 19.188 19.9053 19.2002 19.8809 19.2002C12.3605 21.8208 9.66674 27.0254 9.42296 27.5129C11.6779 29.2681 14.5179 30.3163 17.6016 30.3163C19.4421 30.3285 21.2095 29.9507 22.8062 29.2681ZM7.70435 25.9162C8.00907 25.4043 11.6657 19.3586 18.5402 17.1281C18.7108 17.0671 18.8936 17.0184 19.0643 16.9696C18.7352 16.2139 18.3695 15.4582 17.9795 14.7147C11.3244 16.7015 4.86436 16.6161 4.2793 16.604C4.2793 16.738 4.26711 16.8721 4.26711 17.0062C4.2793 20.4312 5.57131 23.5516 7.70435 25.9162ZM4.55964 14.2881C5.15689 14.3003 10.6418 14.3247 16.8825 12.667C14.6763 8.7422 12.2873 5.45123 11.946 4.97587C8.20409 6.73105 5.42505 10.1683 4.55964 14.2881ZM14.4813 4.0739C14.847 4.56145 17.2725 7.85242 19.4543 11.8625C24.1958 10.083 26.1947 7.40144 26.4385 7.06015C24.0861 4.97587 20.9901 3.70824 17.6016 3.70824C16.529 3.70824 15.4808 3.84231 14.4813 4.0739ZM27.9133 8.59594C27.633 8.97379 25.4024 11.8382 20.4782 13.8493C20.7829 14.4831 21.0876 15.1291 21.368 15.7751C21.4655 16.0067 21.563 16.2383 21.6605 16.4577C26.0972 15.897 30.4974 16.799 30.9361 16.8843C30.8996 13.7518 29.7782 10.863 27.9133 8.59594Z" fill="#CE7D63"/>
</svg>
