<svg width="34" height="34" viewBox="0 0 34 34" fill="none" xmlns="http://www.w3.org/2000/svg">
<path d="M12.2766 16.9999C12.2766 14.392 14.3915 12.2773 17.0009 12.2773C19.6104 12.2773 21.7264 14.392 21.7264 16.9999C21.7264 19.6078 19.6104 21.7225 17.0009 21.7225C14.3915 21.7225 12.2766 19.6078 12.2766 16.9999ZM9.72218 16.9999C9.72218 21.0175 12.9809 24.2743 17.0009 24.2743C21.021 24.2743 24.2797 21.0175 24.2797 16.9999C24.2797 12.9822 21.021 9.72549 17.0009 9.72549C12.9809 9.72549 9.72218 12.9822 9.72218 16.9999ZM22.8668 9.43705C22.8667 9.77328 22.9663 10.102 23.1531 10.3816C23.3399 10.6613 23.6055 10.8793 23.9163 11.0081C24.227 11.1369 24.569 11.1707 24.899 11.1052C25.229 11.0397 25.5322 10.8779 25.7702 10.6403C26.0081 10.4026 26.1703 10.0998 26.236 9.77005C26.3018 9.44031 26.2683 9.09849 26.1396 8.7878C26.011 8.47712 25.7931 8.21153 25.5134 8.02462C25.2338 7.83771 24.905 7.73787 24.5685 7.73774H24.5678C24.1169 7.73795 23.6845 7.91703 23.3655 8.23565C23.0466 8.55427 22.8672 8.98637 22.8668 9.43705ZM11.2742 28.5312C9.89216 28.4683 9.141 28.2382 8.6418 28.0438C7.98 27.7864 7.50779 27.4797 7.01132 26.9842C6.51485 26.4887 6.20754 26.0172 5.95102 25.3558C5.75643 24.8571 5.52622 24.1062 5.4634 22.725C5.39468 21.2317 5.38096 20.7832 5.38096 17C5.38096 13.2168 5.39581 12.7695 5.4634 11.275C5.52634 9.89379 5.75824 9.14431 5.95102 8.64418C6.20867 7.98276 6.51553 7.51085 7.01132 7.01467C7.50711 6.5185 7.97886 6.21137 8.6418 5.95501C9.14077 5.76053 9.89216 5.53046 11.2742 5.46768C12.7684 5.399 13.2172 5.38528 17.0009 5.38528C20.7847 5.38528 21.234 5.40013 22.7294 5.46768C24.1114 5.53058 24.8613 5.76234 25.3618 5.95501C26.0236 6.21137 26.4958 6.51918 26.9922 7.01467C27.4887 7.51017 27.7949 7.98276 28.0525 8.64418C28.2471 9.14284 28.4773 9.89379 28.5402 11.275C28.6089 12.7695 28.6226 13.2168 28.6226 17C28.6226 20.7832 28.6089 21.2305 28.5402 22.725C28.4772 24.1062 28.2459 24.8569 28.0525 25.3558C27.7949 26.0172 27.488 26.4891 26.9922 26.9842C26.4965 27.4792 26.0236 27.7864 25.3618 28.0438C24.8628 28.2383 24.1114 28.4684 22.7294 28.5312C21.2352 28.5999 20.7864 28.6136 17.0009 28.6136C13.2155 28.6136 12.7679 28.5999 11.2742 28.5312ZM11.1568 2.91905C9.64778 2.98772 8.61663 3.22686 7.71611 3.57706C6.7835 3.9387 5.994 4.42388 5.20507 5.21109C4.41614 5.9983 3.93192 6.78857 3.57006 7.72063C3.21965 8.62117 2.98037 9.65114 2.91165 11.1593C2.8418 12.6698 2.82581 13.1527 2.82581 16.9999C2.82581 20.8471 2.8418 21.33 2.91165 22.8405C2.98037 24.3487 3.21965 25.3786 3.57006 26.2791C3.93192 27.2106 4.41625 28.0018 5.20507 28.7887C5.99389 29.5755 6.7835 30.06 7.71611 30.4227C8.61833 30.7729 9.64778 31.012 11.1568 31.0807C12.669 31.1494 13.1514 31.1665 17.0009 31.1665C20.8504 31.1665 21.3336 31.1505 22.8451 31.0807C24.3542 31.012 25.3847 30.7729 26.2858 30.4227C27.2178 30.06 28.0079 29.5759 28.7968 28.7887C29.5857 28.0015 30.0689 27.2106 30.4318 26.2791C30.7822 25.3786 31.0226 24.3486 31.0902 22.8405C31.1589 21.3289 31.1749 20.8471 31.1749 16.9999C31.1749 13.1527 31.1589 12.6698 31.0902 11.1593C31.0215 9.65103 30.7822 8.6206 30.4318 7.72063C30.0689 6.78914 29.5845 5.99955 28.7968 5.21109C28.0091 4.42263 27.2178 3.9387 26.2869 3.57706C25.3847 3.22686 24.3541 2.98659 22.8462 2.91905C21.3348 2.85037 20.8516 2.83325 17.0021 2.83325C13.1526 2.83325 12.669 2.84923 11.1568 2.91905Z" fill="#CE7D63"/>
<path d="M12.2766 16.9999C12.2766 14.392 14.3915 12.2773 17.0009 12.2773C19.6104 12.2773 21.7264 14.392 21.7264 16.9999C21.7264 19.6078 19.6104 21.7225 17.0009 21.7225C14.3915 21.7225 12.2766 19.6078 12.2766 16.9999ZM9.72218 16.9999C9.72218 21.0175 12.9809 24.2743 17.0009 24.2743C21.021 24.2743 24.2797 21.0175 24.2797 16.9999C24.2797 12.9822 21.021 9.72549 17.0009 9.72549C12.9809 9.72549 9.72218 12.9822 9.72218 16.9999ZM22.8668 9.43705C22.8667 9.77328 22.9663 10.102 23.1531 10.3816C23.3399 10.6613 23.6055 10.8793 23.9163 11.0081C24.227 11.1369 24.569 11.1707 24.899 11.1052C25.229 11.0397 25.5322 10.8779 25.7702 10.6403C26.0081 10.4026 26.1703 10.0998 26.236 9.77005C26.3018 9.44031 26.2683 9.09849 26.1396 8.7878C26.011 8.47712 25.7931 8.21153 25.5134 8.02462C25.2338 7.83771 24.905 7.73787 24.5685 7.73774H24.5678C24.1169 7.73795 23.6845 7.91703 23.3655 8.23565C23.0466 8.55427 22.8672 8.98637 22.8668 9.43705ZM11.2742 28.5312C9.89216 28.4683 9.141 28.2382 8.6418 28.0438C7.98 27.7864 7.50779 27.4797 7.01132 26.9842C6.51485 26.4887 6.20754 26.0172 5.95102 25.3558C5.75643 24.8571 5.52622 24.1062 5.4634 22.725C5.39468 21.2317 5.38096 20.7832 5.38096 17C5.38096 13.2168 5.39581 12.7695 5.4634 11.275C5.52634 9.89379 5.75824 9.14431 5.95102 8.64418C6.20867 7.98276 6.51553 7.51085 7.01132 7.01467C7.50711 6.5185 7.97886 6.21137 8.6418 5.95501C9.14077 5.76053 9.89216 5.53046 11.2742 5.46768C12.7684 5.399 13.2172 5.38528 17.0009 5.38528C20.7847 5.38528 21.234 5.40013 22.7294 5.46768C24.1114 5.53058 24.8613 5.76234 25.3618 5.95501C26.0236 6.21137 26.4958 6.51918 26.9922 7.01467C27.4887 7.51017 27.7949 7.98276 28.0525 8.64418C28.2471 9.14284 28.4773 9.89379 28.5402 11.275C28.6089 12.7695 28.6226 13.2168 28.6226 17C28.6226 20.7832 28.6089 21.2305 28.5402 22.725C28.4772 24.1062 28.2459 24.8569 28.0525 25.3558C27.7949 26.0172 27.488 26.4891 26.9922 26.9842C26.4965 27.4792 26.0236 27.7864 25.3618 28.0438C24.8628 28.2383 24.1114 28.4684 22.7294 28.5312C21.2352 28.5999 20.7864 28.6136 17.0009 28.6136C13.2155 28.6136 12.7679 28.5999 11.2742 28.5312ZM11.1568 2.91905C9.64778 2.98772 8.61663 3.22686 7.71611 3.57706C6.7835 3.9387 5.994 4.42388 5.20507 5.21109C4.41614 5.9983 3.93192 6.78857 3.57006 7.72063C3.21965 8.62117 2.98037 9.65114 2.91165 11.1593C2.8418 12.6698 2.82581 13.1527 2.82581 16.9999C2.82581 20.8471 2.8418 21.33 2.91165 22.8405C2.98037 24.3487 3.21965 25.3786 3.57006 26.2791C3.93192 27.2106 4.41625 28.0018 5.20507 28.7887C5.99389 29.5755 6.7835 30.06 7.71611 30.4227C8.61833 30.7729 9.64778 31.012 11.1568 31.0807C12.669 31.1494 13.1514 31.1665 17.0009 31.1665C20.8504 31.1665 21.3336 31.1505 22.8451 31.0807C24.3542 31.012 25.3847 30.7729 26.2858 30.4227C27.2178 30.06 28.0079 29.5759 28.7968 28.7887C29.5857 28.0015 30.0689 27.2106 30.4318 26.2791C30.7822 25.3786 31.0226 24.3486 31.0902 22.8405C31.1589 21.3289 31.1749 20.8471 31.1749 16.9999C31.1749 13.1527 31.1589 12.6698 31.0902 11.1593C31.0215 9.65103 30.7822 8.6206 30.4318 7.72063C30.0689 6.78914 29.5845 5.99955 28.7968 5.21109C28.0091 4.42263 27.2178 3.9387 26.2869 3.57706C25.3847 3.22686 24.3541 2.98659 22.8462 2.91905C21.3348 2.85037 20.8516 2.83325 17.0021 2.83325C13.1526 2.83325 12.669 2.84923 11.1568 2.91905Z" fill="#CE7D63"/>
</svg>
