<svg width="34" height="34" viewBox="0 0 34 34" fill="none" xmlns="http://www.w3.org/2000/svg">
<path d="M32.329 7.31323C31.3284 7.74387 30.2764 8.04374 29.1991 8.20544C29.7028 8.11909 30.4439 7.21249 30.7389 6.84554C31.1871 6.29202 31.5286 5.66013 31.7462 4.98197C31.7462 4.93161 31.7966 4.85965 31.7462 4.82368C31.7208 4.80982 31.6924 4.80256 31.6635 4.80256C31.6346 4.80256 31.6061 4.80982 31.5807 4.82368C30.4109 5.45716 29.1659 5.94065 27.8752 6.26272C27.8302 6.27647 27.7823 6.2777 27.7367 6.26629C27.691 6.25488 27.6494 6.23126 27.6161 6.19797C27.5157 6.07833 27.4075 5.96537 27.2924 5.85979C26.7659 5.38811 26.1686 5.00205 25.5223 4.71575C24.6499 4.35784 23.7076 4.20284 22.7666 4.26245C21.8534 4.32012 20.9619 4.56504 20.1475 4.98197C19.3455 5.42155 18.6406 6.01872 18.0753 6.73761C17.4806 7.47753 17.0512 8.33623 16.8161 9.25594C16.6222 10.1308 16.6002 11.035 16.7514 11.9182C16.7514 12.0693 16.7514 12.0909 16.6218 12.0693C11.4916 11.3138 7.28243 9.49338 3.84311 5.58637C3.69201 5.41369 3.61286 5.41369 3.49054 5.58637C1.99393 7.86006 2.72065 11.4577 4.59141 13.2349C4.84324 13.4723 5.10227 13.7026 5.37569 13.9184C4.51796 13.8576 3.68118 13.6251 2.91492 13.2349C2.77102 13.1414 2.69187 13.1917 2.68467 13.3644C2.66428 13.6038 2.66428 13.8445 2.68467 14.0839C2.83481 15.2313 3.28697 16.3182 3.99493 17.2335C4.70288 18.1487 5.64123 18.8596 6.714 19.2933C6.97552 19.4053 7.24802 19.4897 7.52706 19.5451C6.73302 19.7014 5.91862 19.7258 5.11666 19.6171C4.94398 19.5811 4.87922 19.6746 4.94398 19.8401C6.00168 22.7182 8.29695 23.596 9.98064 24.0853C10.2109 24.1213 10.4411 24.1213 10.7002 24.1789C10.7002 24.1789 10.7002 24.1788 10.657 24.222C10.1605 25.1286 8.15305 25.7402 7.23206 26.0568C5.55102 26.6606 3.75871 26.8914 1.97954 26.7332C1.69893 26.69 1.63417 26.6972 1.56222 26.7332C1.49027 26.7691 1.56222 26.8483 1.64137 26.9202C2.00113 27.1577 2.36089 27.3663 2.73504 27.5678C3.8489 28.1753 5.02646 28.6579 6.24631 29.0069C12.5637 30.7481 19.6726 29.4673 24.4143 24.7545C28.1414 21.0561 29.4509 15.9547 29.4509 10.8461C29.4509 10.6518 29.6884 10.5367 29.8251 10.436C30.768 9.70125 31.5993 8.83357 32.293 7.86006C32.4132 7.71495 32.4748 7.53018 32.4657 7.34201C32.4657 7.23408 32.4657 7.25567 32.329 7.31323Z" fill="#CE7D63"/>
</svg>
