<svg width="60" height="60" viewBox="0 0 60 60" fill="none" xmlns="http://www.w3.org/2000/svg">
<path fill-rule="evenodd" clip-rule="evenodd" d="M20.625 9.375L48.75 9.375C49.2473 9.375 49.7242 9.57254 50.0758 9.92417C50.4275 10.2758 50.625 10.7527 50.625 11.25V39.375C50.625 40.4105 49.7855 41.25 48.75 41.25C47.7145 41.25 46.875 40.4105 46.875 39.375V15.7767L12.5758 50.0758C11.8436 50.8081 10.6564 50.8081 9.92417 50.0758C9.19194 49.3436 9.19194 48.1564 9.92417 47.4242L44.2233 13.125L20.625 13.125C19.5895 13.125 18.75 12.2855 18.75 11.25C18.75 10.2145 19.5895 9.375 20.625 9.375Z" fill="#0F0F0F"/>
</svg>
