<svg width="118" height="134" viewBox="0 0 118 134" fill="none" xmlns="http://www.w3.org/2000/svg">
<rect x="30" y="16" width="88" height="88" rx="44" fill="#CE7D63"/>
<path fill-rule="evenodd" clip-rule="evenodd" d="M64.625 39.375L92.75 39.375C93.2473 39.375 93.7242 39.5725 94.0758 39.9242C94.4275 40.2758 94.625 40.7527 94.625 41.25V69.375C94.625 70.4105 93.7855 71.25 92.75 71.25C91.7145 71.25 90.875 70.4105 90.875 69.375V45.7767L56.5758 80.0758C55.8436 80.8081 54.6564 80.8081 53.9242 80.0758C53.1919 79.3436 53.1919 78.1564 53.9242 77.4242L88.2233 43.125L64.625 43.125C63.5895 43.125 62.75 42.2855 62.75 41.25C62.75 40.2145 63.5895 39.375 64.625 39.375Z" fill="#0F0F0F"/>
<path d="M106.767 126.65C90.1795 134.62 71.2294 136.169 53.5681 130.999C35.9067 125.828 20.784 114.304 11.1141 98.6469C1.44421 82.9896 -2.0885 64.3073 1.19675 46.2003C4.48199 28.0932 14.3527 11.8428 28.9067 0.58055L30.9405 3.20877C17.0357 13.9686 7.60528 29.4942 4.46658 46.7935C1.32788 64.0929 4.70301 81.9418 13.9415 96.9006C23.1801 111.86 37.6282 122.87 54.5018 127.81C71.3753 132.749 89.4801 131.269 105.327 123.655L106.767 126.65Z" fill="#CE7D63"/>
</svg>
