<svg width="266" height="78" viewBox="0 0 266 78" fill="none" xmlns="http://www.w3.org/2000/svg">
<rect x="12" y="13.5" width="52" height="52" rx="26" fill="#CE7D63"/>
<path d="M39.5 32L47 39.5M47 39.5L39.5 47M47 39.5H29" stroke="#0F0F0F" stroke-width="1.5" stroke-linecap="round" stroke-linejoin="round"/>
<path d="M67.666 64.1316C62.5222 70.1011 55.6705 74.3485 48.036 76.3003C40.4015 78.2521 32.352 77.8143 24.9743 75.0459C17.5966 72.2775 11.2461 67.312 6.7801 60.8197C2.31415 54.3274 -0.0520899 46.6211 0.000869498 38.7413C0.0538289 30.8614 2.52344 23.1876 7.07625 16.7559C11.6291 10.3243 18.0458 5.44453 25.46 2.77557C32.8743 0.106609 40.929 -0.223011 48.5365 1.83121C56.144 3.88544 62.938 8.22457 68.0011 14.2627L66.6852 15.3662C61.8479 9.59737 55.357 5.45179 48.0888 3.4892C40.8206 1.52661 33.1252 1.84153 26.0417 4.39143C18.9582 6.94133 12.8277 11.6034 8.47797 17.7482C4.12825 23.893 1.7688 31.2245 1.7182 38.7528C1.6676 46.2811 3.9283 53.6437 8.19503 59.8464C12.4618 66.049 18.5291 70.7931 25.5777 73.438C32.6263 76.0829 40.3167 76.5012 47.6106 74.6365C54.9045 72.7718 61.4506 68.7138 66.365 63.0105L67.666 64.1316Z" fill="#CE7D63"/>
<path d="M72.9609 41.8125V41.4727H75.5508V41.7773C75.5508 42.7695 75.8633 43.5156 76.4883 44.0156C77.1211 44.5078 78 44.7539 79.125 44.7539C80.25 44.7539 81.1094 44.5078 81.7031 44.0156C82.3047 43.5234 82.6055 42.875 82.6055 42.0703C82.6055 41.3125 82.3203 40.7148 81.75 40.2773C81.1797 39.832 80.0586 39.3594 78.3867 38.8594C76.6055 38.3359 75.3086 37.7031 74.4961 36.9609C73.6836 36.2109 73.2773 35.1602 73.2773 33.8086C73.2773 32.4258 73.7891 31.2969 74.8125 30.4219C75.8359 29.5469 77.2383 29.1094 79.0195 29.1094C80.793 29.1094 82.207 29.5625 83.2617 30.4688C84.3242 31.3672 84.8555 32.5508 84.8555 34.0195V34.3125H82.2891V34.0547C82.2891 33.1875 82.0156 32.4961 81.4688 31.9805C80.9219 31.457 80.1094 31.1953 79.0312 31.1953C77.9375 31.1953 77.1328 31.418 76.6172 31.8633C76.1094 32.3086 75.8555 32.9102 75.8555 33.668C75.8555 34.3789 76.125 34.9375 76.6641 35.3438C77.2109 35.7422 78.3281 36.1914 80.0156 36.6914C81.7734 37.207 83.0742 37.8594 83.918 38.6484C84.7617 39.4375 85.1836 40.543 85.1836 41.9648C85.1836 43.4336 84.6367 44.6133 83.543 45.5039C82.4492 46.3867 80.9805 46.8281 79.1367 46.8281C77.2852 46.8281 75.793 46.3906 74.6602 45.5156C73.5273 44.6406 72.9609 43.4062 72.9609 41.8125ZM86.3086 31.5234V29.4375H99.3281V31.5234H94.125V46.5H91.5117V31.5234H86.3086ZM98.5078 46.5L104.707 29.3555H107.344L113.566 46.5H110.859L106.406 33.7266C106.32 33.4531 106.242 33.1953 106.172 32.9531C106.109 32.7109 106.051 32.4648 105.996 32.2148H105.902C105.84 32.4648 105.773 32.7109 105.703 32.9531C105.641 33.1953 105.562 33.4531 105.469 33.7266L101.027 46.5H98.5078ZM101.438 42.2344L102.105 40.2305H109.875L110.531 42.2344H101.438ZM115.266 46.5V29.4375H120.902C122.715 29.4375 124.113 29.8984 125.098 30.8203C126.09 31.7422 126.586 32.9844 126.586 34.5469C126.586 36.1172 126.09 37.3789 125.098 38.332C124.105 39.2773 122.707 39.75 120.902 39.75H117.855V46.5H115.266ZM117.855 37.7461H120.797C121.984 37.7461 122.812 37.4453 123.281 36.8438C123.75 36.2422 123.988 35.4844 123.996 34.5703C123.996 33.6641 123.758 32.9219 123.281 32.3438C122.812 31.7656 121.984 31.4727 120.797 31.4648H117.855V37.7461ZM124.523 46.5L120.48 38.6602L123.094 38.3438L127.418 46.5H124.523ZM127.23 31.5234V29.4375H140.25V31.5234H135.047V46.5H132.434V31.5234H127.23ZM145.5 46.5L151.699 29.3555H154.336L160.559 46.5H157.852L153.398 33.7266C153.312 33.4531 153.234 33.1953 153.164 32.9531C153.102 32.7109 153.043 32.4648 152.988 32.2148H152.895C152.832 32.4648 152.766 32.7109 152.695 32.9531C152.633 33.1953 152.555 33.4531 152.461 33.7266L148.02 46.5H145.5ZM148.43 42.2344L149.098 40.2305H156.867L157.523 42.2344H148.43ZM167.836 46.5V29.4375H173.637C175.48 29.4375 176.895 29.9141 177.879 30.8672C178.863 31.8203 179.355 33.1055 179.355 34.7227C179.355 36.332 178.863 37.6211 177.879 38.5898C176.902 39.5586 175.484 40.043 173.625 40.043H170.426V46.5H167.836ZM170.426 38.0039H173.461C174.688 38.0039 175.543 37.6953 176.027 37.0781C176.512 36.4531 176.754 35.6719 176.754 34.7344C176.754 33.7969 176.512 33.0234 176.027 32.4141C175.543 31.7969 174.688 31.4883 173.461 31.4883H170.426V38.0039ZM181.711 46.5V29.4375H187.348C189.16 29.4375 190.559 29.8984 191.543 30.8203C192.535 31.7422 193.031 32.9844 193.031 34.5469C193.031 36.1172 192.535 37.3789 191.543 38.332C190.551 39.2773 189.152 39.75 187.348 39.75H184.301V46.5H181.711ZM184.301 37.7461H187.242C188.43 37.7461 189.258 37.4453 189.727 36.8438C190.195 36.2422 190.434 35.4844 190.441 34.5703C190.441 33.6641 190.203 32.9219 189.727 32.3438C189.258 31.7656 188.43 31.4727 187.242 31.4648H184.301V37.7461ZM190.969 46.5L186.926 38.6602L189.539 38.3438L193.863 46.5H190.969ZM195.398 38.4844V37.4531C195.398 34.7266 196.059 32.6562 197.379 31.2422C198.707 29.8203 200.418 29.1094 202.512 29.1094C204.598 29.1094 206.305 29.8203 207.633 31.2422C208.961 32.6562 209.625 34.7266 209.625 37.4531V38.4844C209.625 41.2109 208.961 43.2852 207.633 44.707C206.305 46.1211 204.598 46.8281 202.512 46.8281C200.418 46.8281 198.707 46.1211 197.379 44.707C196.059 43.2852 195.398 41.2109 195.398 38.4844ZM198.047 38.6602C198.047 40.6602 198.453 42.1719 199.266 43.1953C200.078 44.2188 201.16 44.7305 202.512 44.7305C203.863 44.7305 204.945 44.2188 205.758 43.1953C206.57 42.1719 206.977 40.6602 206.977 38.6602V37.2773C206.977 35.2773 206.57 33.7656 205.758 32.7422C204.945 31.7188 203.863 31.207 202.512 31.207C201.16 31.207 200.078 31.7188 199.266 32.7422C198.453 33.7656 198.047 35.2773 198.047 37.2773V38.6602ZM211.113 41.6133V41.3906H213.656V41.6367C213.656 42.6914 213.895 43.4727 214.371 43.9805C214.855 44.4883 215.547 44.7422 216.445 44.7422C217.328 44.7422 218.012 44.4688 218.496 43.9219C218.988 43.3672 219.234 42.5078 219.234 41.3438V29.4375H221.836V41.2383C221.836 42.9961 221.352 44.3672 220.383 45.3516C219.422 46.3359 218.117 46.8281 216.469 46.8281C214.836 46.8281 213.535 46.3789 212.566 45.4805C211.598 44.582 211.113 43.293 211.113 41.6133ZM225.281 46.5V29.4375H235.887V31.5234H227.859V36.6914H234.797V38.7422H227.859V44.4258H236.004V46.5H225.281ZM237.867 38.4844V37.4531C237.867 34.7266 238.527 32.6562 239.848 31.2422C241.176 29.8203 242.863 29.1094 244.91 29.1094C246.918 29.1094 248.492 29.6523 249.633 30.7383C250.773 31.8164 251.344 33.1875 251.344 34.8516V35.1211H248.742V34.8164C248.742 33.7148 248.422 32.8398 247.781 32.1914C247.148 31.5352 246.188 31.207 244.898 31.207C243.594 31.207 242.539 31.6992 241.734 32.6836C240.93 33.6602 240.527 35.1836 240.527 37.2539V38.6836C240.527 40.6289 240.93 42.125 241.734 43.1719C242.539 44.2109 243.602 44.7305 244.922 44.7305C246.148 44.7305 247.074 44.3984 247.699 43.7344C248.324 43.0703 248.672 42.1914 248.742 41.0977V40.8281H251.344L251.332 41.1328C251.23 42.7578 250.637 44.1133 249.551 45.1992C248.473 46.2773 246.922 46.8164 244.898 46.8164C242.82 46.8164 241.129 46.1055 239.824 44.6836C238.52 43.2539 237.867 41.1875 237.867 38.4844ZM252.551 31.5234V29.4375H265.57V31.5234H260.367V46.5H257.754V31.5234H252.551Z" fill="#CE7D63"/>
</svg>
