<svg width="34" height="34" viewBox="0 0 34 34" fill="none" xmlns="http://www.w3.org/2000/svg">
<path d="M14.5071 8.15012L25.8485 19.4914C26.7026 20.3456 28.0874 20.3456 28.9415 19.4914C29.7957 18.6373 29.7957 17.2525 28.9415 16.3984L27.395 14.8518L29.4571 12.7898C31.7347 10.5121 31.7347 6.8192 29.4571 4.54152C27.1794 2.26383 23.4865 2.26383 21.2088 4.54152L19.1468 6.60357L17.6002 5.05703C16.7461 4.2029 15.3613 4.2029 14.5071 5.05703C13.653 5.91116 13.653 7.29599 14.5071 8.15012Z" fill="#CE7D63"/>
<path d="M14.5511 11.1993L6.66963 19.0807C6.02364 19.7267 5.70063 20.0497 5.49559 20.4366C5.35883 20.6947 5.26161 20.9718 5.20719 21.2588C5.1256 21.689 5.17604 22.143 5.27693 23.051L5.35175 23.7243C5.37928 23.9721 5.39304 24.096 5.39651 24.2148C5.41751 24.9352 5.17105 25.6378 4.70466 26.1871C4.6277 26.2778 4.53957 26.3659 4.3633 26.5422L3.47263 27.4329C2.6185 28.287 2.6185 29.6718 3.47263 30.5259C4.32676 31.3801 5.71159 31.3801 6.56572 30.5259L7.45644 29.6352C7.63267 29.459 7.72079 29.3709 7.81144 29.2939C8.36081 28.8275 9.06341 28.5811 9.78374 28.6021C9.90261 28.6055 10.0265 28.6193 10.2742 28.6468L10.9476 28.7216C11.8556 28.8225 12.3096 28.873 12.7398 28.7914C13.0267 28.737 13.3039 28.6397 13.562 28.503C13.9489 28.2979 14.2719 27.9749 14.9179 27.3289L16.9556 25.291L14.3299 22.6653C13.915 22.2503 13.915 21.5776 14.3299 21.1627C14.7448 20.7477 15.4176 20.7477 15.8325 21.1627L18.4583 23.7885L19.789 22.4577L17.1632 19.8319C16.7483 19.417 16.7483 18.7443 17.1632 18.3293C17.5782 17.9144 18.2509 17.9144 18.6659 18.3293L21.2917 20.9551L22.7993 19.4475L14.5511 11.1993Z" fill="#CE7D63"/>
</svg>
