<svg width="34" height="34" viewBox="0 0 34 34" fill="none" xmlns="http://www.w3.org/2000/svg">
<path fill-rule="evenodd" clip-rule="evenodd" d="M7.3277 4.49298C5.66797 6.15271 5.66797 8.824 5.66797 14.1666V19.8333C5.66797 25.1758 5.66797 27.8471 7.3277 29.5069C8.98743 31.1666 11.6587 31.1666 17.0013 31.1666C22.3439 31.1666 25.0152 31.1666 26.6749 29.5069C28.3346 27.8471 28.3346 25.1758 28.3346 19.8333V14.1666C28.3346 8.824 28.3346 6.15271 26.6749 4.49298C25.0152 2.83325 22.3439 2.83325 17.0013 2.83325C11.6587 2.83325 8.98743 2.83325 7.3277 4.49298ZM12.7513 6.02075C12.1645 6.02075 11.6888 6.49645 11.6888 7.08325C11.6888 7.67005 12.1645 8.14575 12.7513 8.14575H21.2513C21.8381 8.14575 22.3138 7.67005 22.3138 7.08325C22.3138 6.49645 21.8381 6.02075 21.2513 6.02075H12.7513ZM17.0013 26.9166C18.5661 26.9166 19.8346 25.6481 19.8346 24.0833C19.8346 22.5184 18.5661 21.2499 17.0013 21.2499C15.4365 21.2499 14.168 22.5184 14.168 24.0833C14.168 25.6481 15.4365 26.9166 17.0013 26.9166Z" fill="#CE7D63"/>
</svg>
