<svg width="34" height="34" viewBox="0 0 34 34" fill="none" xmlns="http://www.w3.org/2000/svg">
<path fill-rule="evenodd" clip-rule="evenodd" d="M17.0724 1.77075H16.925C15.6522 1.77071 14.5908 1.77068 13.7482 1.88396C12.8588 2.00354 12.0558 2.26657 11.4106 2.91182C10.7653 3.55707 10.5023 4.36004 10.3827 5.24941C10.2695 6.09201 10.2695 7.1534 10.2695 8.42623V8.53635C7.4062 8.63004 5.68678 8.96463 4.49176 10.1596C2.83203 11.8194 2.83203 14.4907 2.83203 19.8333C2.83203 25.1758 2.83203 27.8471 4.49176 29.5069C6.15149 31.1666 8.82278 31.1666 14.1654 31.1666H19.832C25.1746 31.1666 27.8459 31.1666 29.5056 29.5069C31.1654 27.8471 31.1654 25.1758 31.1654 19.8333C31.1654 14.4907 31.1654 11.8194 29.5056 10.1596C28.3106 8.96463 26.5912 8.63004 23.7279 8.53635V8.42626C23.7279 7.15344 23.7279 6.09201 23.6147 5.24941C23.4951 4.36004 23.2321 3.55707 22.5868 2.91182C21.9416 2.26657 21.1386 2.00354 20.2492 1.88396C19.4066 1.77068 18.3452 1.77071 17.0724 1.77075ZM21.6029 8.50259V8.49992C21.6029 7.13424 21.6006 6.21686 21.5086 5.53256C21.4207 4.87882 21.2688 4.59904 21.0842 4.41442C20.8996 4.22981 20.6198 4.07791 19.9661 3.99002C19.2818 3.89801 18.3644 3.89576 16.9987 3.89576C15.633 3.89576 14.7156 3.89801 14.0313 3.99002C13.3776 4.07791 13.0978 4.22981 12.9132 4.41442C12.7286 4.59904 12.5767 4.87882 12.4888 5.53256C12.3968 6.21686 12.3945 7.13424 12.3945 8.49992V8.50259C12.9499 8.49992 13.5393 8.49992 14.1654 8.49992H19.832C20.4581 8.49992 21.0475 8.49992 21.6029 8.50259ZM24.082 12.7499C24.082 13.5323 23.4478 14.1666 22.6654 14.1666C21.883 14.1666 21.2487 13.5323 21.2487 12.7499C21.2487 11.9675 21.883 11.3333 22.6654 11.3333C23.4478 11.3333 24.082 11.9675 24.082 12.7499ZM11.332 14.1666C12.1144 14.1666 12.7487 13.5323 12.7487 12.7499C12.7487 11.9675 12.1144 11.3333 11.332 11.3333C10.5496 11.3333 9.91537 11.9675 9.91537 12.7499C9.91537 13.5323 10.5496 14.1666 11.332 14.1666Z" fill="#CE7D63"/>
</svg>
