<svg width="34" height="34" viewBox="0 0 34 34" fill="none" xmlns="http://www.w3.org/2000/svg">
<path d="M2.83203 9.20825C2.83203 5.68744 5.68622 2.83325 9.20703 2.83325C12.7278 2.83325 15.582 5.68744 15.582 9.20825V13.4583C15.582 13.9523 15.582 14.1993 15.5277 14.402C15.3804 14.952 14.9508 15.3816 14.4008 15.5289C14.1981 15.5833 13.9511 15.5833 13.457 15.5833H9.20703C5.68622 15.5833 2.83203 12.7291 2.83203 9.20825Z" fill="#CE7D63"/>
<path d="M18.4154 20.5416C18.4154 20.0475 18.4154 19.8005 18.4697 19.5978C18.617 19.0479 19.0466 18.6183 19.5966 18.4709C19.7993 18.4166 20.0463 18.4166 20.5404 18.4166H24.7904C28.3112 18.4166 31.1654 21.2708 31.1654 24.7916C31.1654 28.3124 28.3112 31.1666 24.7904 31.1666C21.2696 31.1666 18.4154 28.3124 18.4154 24.7916V20.5416Z" fill="#CE7D63"/>
<path d="M2.83203 24.7916C2.83203 21.2708 5.68622 18.4166 9.20703 18.4166H13.032C13.9246 18.4166 14.3709 18.4166 14.7118 18.5903C15.0117 18.7431 15.2555 18.9869 15.4083 19.2868C15.582 19.6277 15.582 20.074 15.582 20.9666V24.7916C15.582 28.3124 12.7278 31.1666 9.20703 31.1666C5.68622 31.1666 2.83203 28.3124 2.83203 24.7916Z" fill="#CE7D63"/>
<path d="M18.4154 9.20825C18.4154 5.68744 21.2696 2.83325 24.7904 2.83325C28.3112 2.83325 31.1654 5.68744 31.1654 9.20825C31.1654 12.7291 28.3112 15.5833 24.7904 15.5833H20.2368C20.0253 15.5833 19.9196 15.5833 19.8307 15.5732C19.0918 15.49 18.5086 14.9068 18.4254 14.1679C18.4154 14.079 18.4154 13.9733 18.4154 13.7618V9.20825Z" fill="#CE7D63"/>
</svg>
