<svg width="34" height="34" viewBox="0 0 34 34" fill="none" xmlns="http://www.w3.org/2000/svg">
<path d="M17 31C24.732 31 31 24.732 31 17C31 9.26801 24.732 3 17 3C9.26801 3 3 9.26801 3 17C3 24.732 9.26801 31 17 31Z" fill="#CE7D63"/>
<path d="M26.3402 16.9996C26.343 17.1914 26.3192 17.3829 26.2688 17.568C26.2184 17.7532 26.1421 17.9306 26.042 18.0944C25.9422 18.2582 25.8197 18.4073 25.6783 18.5372C25.5369 18.667 25.378 18.7762 25.2062 18.8616C25.21 18.9127 25.2132 18.9642 25.2149 19.0156C25.2191 19.1183 25.2191 19.221 25.2149 19.3236C25.2132 19.3751 25.21 19.4265 25.2062 19.4776C25.2062 22.6136 21.5522 25.1616 17.0442 25.1616C12.5362 25.1616 8.88216 22.6136 8.88216 19.4776C8.87831 19.4265 8.87516 19.3751 8.87341 19.3236C8.8692 19.221 8.8692 19.1183 8.87341 19.0156C8.87516 18.9642 8.87831 18.9127 8.88216 18.8616C8.61293 18.7379 8.3738 18.5571 8.18132 18.3318C7.98884 18.1065 7.84762 17.8421 7.76741 17.5568C7.68734 17.2715 7.67029 16.9721 7.71743 16.6795C7.76457 16.3868 7.87477 16.1079 8.04041 15.8621C8.20591 15.6164 8.42289 15.4096 8.6763 15.2561C8.92972 15.1026 9.2135 15.006 9.50796 14.9731C9.80246 14.9401 10.1006 14.9716 10.3818 15.0652C10.6629 15.1589 10.9203 15.3126 11.1362 15.5156C11.5369 15.2441 11.9567 15.0018 12.3923 14.7908C12.8281 14.5801 13.2785 14.4009 13.7402 14.2553C14.2018 14.1097 14.6736 13.998 15.1514 13.9207C15.6291 13.8433 16.1121 13.801 16.5962 13.7936L17.6322 8.93565C17.6437 8.8793 17.6665 8.8261 17.699 8.7785C17.7312 8.73125 17.7729 8.69065 17.8208 8.6595C17.8691 8.62835 17.923 8.607 17.9797 8.5965C18.0361 8.58635 18.0942 8.5874 18.1502 8.59965L21.5802 9.28565C21.9263 8.691 22.6529 8.4362 23.2945 8.684C23.936 8.9318 24.3028 9.60905 24.1593 10.2817C24.0162 10.9544 23.4051 11.4234 22.7184 11.3881C22.0313 11.3527 21.4717 10.8235 21.3982 10.1396L18.4022 9.50965L17.4922 13.8776C17.9703 13.8878 18.4473 13.9326 18.9191 14.0113C19.8639 14.1688 20.781 14.4619 21.6421 14.8814C22.0722 15.0907 22.4866 15.3308 22.8822 15.5996C23.1666 15.3266 23.524 15.1417 23.9112 15.0673C24.2984 14.9926 24.6989 15.0317 25.0644 15.1796C25.43 15.3276 25.7449 15.5781 25.9713 15.901C26.1977 16.2239 26.3258 16.6055 26.3402 16.9996ZM12.4466 18.9355C12.5173 19.1052 12.6202 19.2596 12.7504 19.3894C12.8802 19.5196 13.0346 19.6225 13.2043 19.6932C13.3742 19.7635 13.5563 19.7997 13.7402 19.7996C14.3065 19.7996 14.8168 19.4584 15.0338 18.9355C15.2504 18.4122 15.1304 17.8102 14.73 17.4098C14.3296 17.0094 13.7276 16.8894 13.2043 17.106C12.6814 17.323 12.3402 17.8333 12.3402 18.3996C12.3402 18.5834 12.3762 18.7654 12.4466 18.9355ZM20.4651 22.2962C20.5368 22.2262 20.5778 22.1306 20.5792 22.0305C20.5806 21.9301 20.5417 21.8335 20.4717 21.7617C20.4017 21.69 20.3062 21.649 20.2061 21.6476C20.1056 21.6462 20.009 21.6851 19.9282 21.7456C19.7176 21.8966 19.4947 22.0295 19.2618 22.1429C19.0288 22.2563 18.7867 22.3499 18.538 22.4225C18.2895 22.495 18.035 22.5464 17.7778 22.5762C17.5202 22.6059 17.2608 22.6136 17.0022 22.5996C16.7439 22.6112 16.4849 22.6007 16.2283 22.5685C15.9717 22.5366 15.7183 22.4828 15.4709 22.4075C15.2231 22.3326 14.9827 22.2367 14.7513 22.1212C14.52 22.0057 14.2988 21.8706 14.0902 21.7176C14.0177 21.6581 13.9257 21.6277 13.8319 21.6322C13.7381 21.6368 13.6495 21.6763 13.583 21.7425C13.5169 21.809 13.4773 21.8975 13.4728 21.9913C13.4682 22.0851 13.4987 22.1772 13.5582 22.2496C13.8042 22.4351 14.0657 22.5989 14.3397 22.7396C14.6138 22.8803 14.8997 22.9969 15.1937 23.0886C15.4877 23.1803 15.7891 23.2464 16.0946 23.2867C16.4002 23.3266 16.7085 23.3402 17.0162 23.3276C17.3238 23.3402 17.6322 23.3266 17.9377 23.2867C18.5497 23.2062 19.1433 23.0212 19.6926 22.7396C19.9667 22.5989 20.2281 22.4351 20.4742 22.2496L20.4651 22.2962ZM20.2082 19.9116C20.3979 19.9137 20.5862 19.877 20.7615 19.8042C20.9369 19.731 21.0954 19.6232 21.2277 19.4871C21.36 19.3509 21.4629 19.1892 21.5308 19.0118C21.5988 18.8346 21.6298 18.6453 21.6222 18.4556C21.6222 17.8893 21.2809 17.379 20.758 17.162C20.2348 16.9454 19.6328 17.0654 19.2324 17.4658C18.832 17.8662 18.7119 18.4682 18.9286 18.9915C19.1456 19.5144 19.6559 19.8556 20.2222 19.8556L20.2082 19.9116Z" fill="#1F1F1F"/>
</svg>
