<svg width="34" height="35" viewBox="0 0 34 35" fill="none" xmlns="http://www.w3.org/2000/svg">
<path fill-rule="evenodd" clip-rule="evenodd" d="M19.553 8.0556C19.553 5.44758 21.6768 3.33337 24.2967 3.33337C26.9165 3.33337 29.0404 5.44758 29.0404 8.0556C29.0404 10.6636 26.9165 12.7778 24.2967 12.7778C22.9738 12.7778 21.7782 12.2385 20.9187 11.3708L14.3519 15.8419C14.4126 16.1436 14.4444 16.4552 14.4444 16.7735C14.4444 17.404 14.3198 18.0066 14.094 18.5574L21.2945 23.2883C22.1117 22.6228 23.1574 22.2223 24.2967 22.2223C26.9165 22.2223 29.0404 24.3365 29.0404 26.9445C29.0404 29.5525 26.9165 31.6667 24.2967 31.6667C21.6768 31.6667 19.553 29.5525 19.553 26.9445C19.553 26.2614 19.6992 25.6112 19.962 25.0241L12.8196 20.3315C11.9865 21.0556 10.8951 21.4958 9.70072 21.4958C7.08085 21.4958 4.95703 19.3816 4.95703 16.7735C4.95703 14.1655 7.08085 12.0513 9.70072 12.0513C11.2072 12.0513 12.5483 12.7503 13.4166 13.8382L19.7809 9.50498C19.6329 9.04763 19.553 8.56031 19.553 8.0556Z" fill="#DA9E8B"/>
</svg>
