<svg width="34" height="34" viewBox="0 0 34 34" fill="none" xmlns="http://www.w3.org/2000/svg">
<path d="M32.3277 7.31323C31.327 7.74387 30.2751 8.04374 29.1978 8.20544C29.7014 8.11909 30.4425 7.21249 30.7375 6.84554C31.1857 6.29202 31.5273 5.66013 31.7449 4.98197C31.7449 4.93161 31.7952 4.85965 31.7449 4.82368C31.7195 4.80982 31.691 4.80256 31.6621 4.80256C31.6332 4.80256 31.6048 4.80982 31.5794 4.82368C30.4096 5.45716 29.1646 5.94065 27.8738 6.26272C27.8288 6.27647 27.781 6.2777 27.7353 6.26629C27.6897 6.25488 27.648 6.23126 27.6148 6.19797C27.5143 6.07833 27.4062 5.96537 27.291 5.85979C26.7646 5.38811 26.1673 5.00205 25.521 4.71575C24.6486 4.35784 23.7063 4.20284 22.7652 4.26245C21.8521 4.32012 20.9606 4.56504 20.1462 4.98197C19.3442 5.42155 18.6393 6.01872 18.0739 6.73761C17.4792 7.47753 17.0499 8.33623 16.8148 9.25594C16.6209 10.1308 16.5989 11.035 16.75 11.9182C16.75 12.0693 16.75 12.0909 16.6205 12.0693C11.4903 11.3138 7.28108 9.49338 3.84176 5.58637C3.69066 5.41369 3.61152 5.41369 3.4892 5.58637C1.99259 7.86006 2.71931 11.4577 4.59007 13.2349C4.8419 13.4723 5.10093 13.7026 5.37435 13.9184C4.51662 13.8576 3.67983 13.6251 2.91358 13.2349C2.76967 13.1414 2.69053 13.1917 2.68333 13.3644C2.66293 13.6038 2.66293 13.8445 2.68333 14.0839C2.83346 15.2313 3.28563 16.3182 3.99358 17.2335C4.70154 18.1487 5.63988 18.8596 6.71266 19.2933C6.97418 19.4053 7.24668 19.4897 7.52572 19.5451C6.73167 19.7014 5.91728 19.7258 5.11532 19.6171C4.94263 19.5811 4.87788 19.6746 4.94263 19.8401C6.00033 22.7182 8.29561 23.596 9.9793 24.0853C10.2095 24.1213 10.4398 24.1213 10.6988 24.1789C10.6988 24.1789 10.6988 24.1788 10.6556 24.222C10.1592 25.1286 8.15171 25.7402 7.23072 26.0568C5.54967 26.6606 3.75737 26.8914 1.9782 26.7332C1.69758 26.69 1.63283 26.6972 1.56088 26.7332C1.48892 26.7691 1.56088 26.8483 1.64002 26.9202C1.99978 27.1577 2.35955 27.3663 2.7337 27.5678C3.84755 28.1753 5.02512 28.6579 6.24497 29.0069C12.5624 30.7481 19.6713 29.4673 24.4129 24.7545C28.1401 21.0561 29.4496 15.9547 29.4496 10.8461C29.4496 10.6518 29.687 10.5367 29.8237 10.436C30.7667 9.70125 31.598 8.83357 32.2917 7.86006C32.4118 7.71495 32.4734 7.53018 32.4644 7.34201C32.4644 7.23408 32.4644 7.25567 32.3277 7.31323Z" fill="#CE7D63"/>
</svg>
