<svg width="34" height="34" viewBox="0 0 34 34" fill="none" xmlns="http://www.w3.org/2000/svg">
<path fill-rule="evenodd" clip-rule="evenodd" d="M19.0335 8.19274C17.7652 7.50119 16.2325 7.50118 14.9643 8.19273L8.17243 11.8961C6.80678 12.6408 5.95703 14.072 5.95703 15.6275V22.6225C5.95703 24.1779 6.80678 25.6092 8.17242 26.3538L14.9642 30.0572C16.2325 30.7488 17.7652 30.7488 19.0335 30.0572L25.8253 26.3538C27.1909 25.6092 28.0407 24.178 28.0407 22.6225V15.6275C28.0407 14.072 27.1909 12.6408 25.8253 11.8961L19.0335 8.19274ZM16.9991 14.875C16.5967 14.875 16.3276 15.3579 15.7892 16.3236L15.65 16.5734C15.497 16.8478 15.4205 16.985 15.3012 17.0756C15.182 17.1661 15.0335 17.1997 14.7364 17.2669L14.4659 17.3281C13.4206 17.5646 12.8979 17.6829 12.7735 18.0828C12.6492 18.4827 13.0055 18.8994 13.7182 19.7327L13.9026 19.9483C14.1051 20.1851 14.2063 20.3035 14.2519 20.45C14.2974 20.5965 14.2821 20.7545 14.2515 21.0705L14.2236 21.3581C14.1159 22.47 14.062 23.0259 14.3876 23.2731C14.7131 23.5202 15.2025 23.2949 16.1813 22.8442L16.4345 22.7277C16.7127 22.5996 16.8517 22.5356 16.9991 22.5356C17.1466 22.5356 17.2856 22.5996 17.5638 22.7277L17.817 22.8442C18.7958 23.2949 19.2851 23.5202 19.6107 23.2731C19.9363 23.0259 19.8824 22.47 19.7747 21.3581L19.7468 21.0705C19.7162 20.7545 19.7009 20.5965 19.7464 20.45C19.792 20.3035 19.8932 20.1851 20.0957 19.9483L20.2801 19.7327C20.9928 18.8994 21.3491 18.4827 21.2247 18.0828C21.1004 17.6829 20.5777 17.5646 19.5323 17.3281L19.2619 17.2669C18.9648 17.1997 18.8163 17.1661 18.697 17.0756C18.5778 16.985 18.5013 16.8478 18.3483 16.5734L18.2091 16.3236C17.6707 15.3579 17.4016 14.875 16.9991 14.875Z" fill="#CE7D63"/>
<path d="M15.5827 2.83337H18.416C21.0873 2.83337 22.423 2.83337 23.2528 3.66324C24.0827 4.4931 24.0827 5.82875 24.0827 8.50004V8.5255L20.051 6.32711C18.1486 5.28978 15.8495 5.28978 13.9472 6.32711L9.91602 8.52518V8.50004C9.91602 5.82875 9.91602 4.4931 10.7459 3.66324C11.5757 2.83337 12.9114 2.83337 15.5827 2.83337Z" fill="#CE7D63"/>
</svg>
