<svg width="34" height="35" viewBox="0 0 34 35" fill="none" xmlns="http://www.w3.org/2000/svg">
<path fill-rule="evenodd" clip-rule="evenodd" d="M31.1663 17.5V27.7082C31.1663 29.5269 29.2525 30.7097 27.6258 29.8964C26.3111 29.239 24.7449 29.3365 23.5218 30.1519C22.1459 31.0692 20.3534 31.0692 18.9775 30.1519L18.4779 29.8188C17.5828 29.2221 16.4166 29.2221 15.5214 29.8188L15.0218 30.1519C13.6459 31.0692 11.8534 31.0692 10.4775 30.1519C9.25448 29.3365 7.68829 29.239 6.37354 29.8964C4.74689 30.7097 2.83301 29.5269 2.83301 27.7082V17.5C2.83301 9.67598 9.17564 3.33334 16.9997 3.33334C24.8237 3.33334 31.1663 9.67598 31.1663 17.5ZM13.3824 20.8964C12.911 20.547 12.2455 20.6459 11.8961 21.1173C11.5467 21.5887 11.6456 22.2542 12.117 22.6036C13.4946 23.6247 15.1793 24.2292 16.9997 24.2292C18.8201 24.2292 20.5048 23.6247 21.8824 22.6036C22.3538 22.2542 22.4527 21.5887 22.1033 21.1173C21.7538 20.6459 21.0884 20.547 20.617 20.8964C19.5852 21.6612 18.3397 22.1042 16.9997 22.1042C15.6596 22.1042 14.4142 21.6612 13.3824 20.8964ZM22.6663 13.9583C22.6663 15.1319 22.0321 16.0833 21.2497 16.0833C20.4673 16.0833 19.833 15.1319 19.833 13.9583C19.833 12.7847 20.4673 11.8333 21.2497 11.8333C22.0321 11.8333 22.6663 12.7847 22.6663 13.9583ZM12.7497 16.0833C13.5321 16.0833 14.1663 15.1319 14.1663 13.9583C14.1663 12.7847 13.5321 11.8333 12.7497 11.8333C11.9673 11.8333 11.333 12.7847 11.333 13.9583C11.333 15.1319 11.9673 16.0833 12.7497 16.0833Z" fill="#CE7D63"/>
</svg>
