<svg width="34" height="35" viewBox="0 0 34 35" fill="none" xmlns="http://www.w3.org/2000/svg">
<path d="M9.91699 7.34159C9.91699 9.53429 12.3621 11.8441 14.3791 13.3765C15.5112 14.2366 16.0772 14.6667 17.0003 14.6667C17.9234 14.6667 18.4895 14.2366 19.6215 13.3766C21.6386 11.8441 24.0837 9.53432 24.0837 7.34157C24.0837 3.38884 20.1877 1.91307 17.0003 4.96653C13.8129 1.91307 9.91699 3.38884 9.91699 7.34159Z" fill="#CE7D63"/>
<path d="M8.86857 30.8002H8.50033C7.16468 30.8002 6.49686 30.8002 6.08192 30.3853C5.66699 29.9703 5.66699 29.3025 5.66699 27.9669V26.3916C5.66699 25.6571 5.66699 25.2898 5.85566 24.9618C6.04433 24.6338 6.32896 24.4683 6.89822 24.1372C10.646 21.9575 15.9684 20.7304 19.5207 22.8492C19.7593 22.9915 19.974 23.1634 20.1574 23.3694C20.9481 24.2575 20.8904 25.5978 19.9792 26.3931C19.7868 26.5611 19.5817 26.6884 19.3752 26.7327C19.5449 26.713 19.7076 26.6905 19.8628 26.6657C21.154 26.4598 22.2378 25.7698 23.23 25.0203L25.7902 23.0863C26.6928 22.4045 28.0323 22.4044 28.9351 23.086C29.7478 23.6996 29.9963 24.71 29.4825 25.5336C28.8833 26.494 28.0391 27.7226 27.2286 28.4734C26.4168 29.2252 25.2083 29.8964 24.2218 30.3726C23.1289 30.9001 21.9215 31.204 20.6935 31.4028C18.2029 31.806 15.6071 31.7444 13.1418 31.2365C11.7481 30.9494 10.3006 30.8002 8.86857 30.8002Z" fill="#CE7D63"/>
</svg>
