<svg width="34" height="34" viewBox="0 0 34 34" fill="none" xmlns="http://www.w3.org/2000/svg">
<path d="M17.8299 30.3367C18.6597 31.1666 19.9954 31.1666 22.6667 31.1666H25.5C28.1713 31.1666 29.5069 31.1666 30.3368 30.3367C31.1667 29.5069 31.1667 28.1712 31.1667 25.4999V8.49992C31.1667 5.82864 31.1667 4.49298 30.3368 3.66312C29.5069 2.83325 28.1713 2.83325 25.5 2.83325H22.6667C19.9954 2.83325 18.6597 2.83325 17.8299 3.66312C17.1182 4.37479 17.0168 5.45843 17.0024 7.43742L19.8333 7.43742C20.4201 7.43742 20.8958 7.91312 20.8958 8.49992C20.8958 9.08672 20.4201 9.56242 19.8333 9.56242H17V11.6874H21.25C21.8368 11.6874 22.3125 12.1631 22.3125 12.7499C22.3125 13.3367 21.8368 13.8124 21.25 13.8124H17V15.9374H19.8333C20.4201 15.9374 20.8958 16.4131 20.8958 16.9999C20.8958 17.5867 20.4201 18.0624 19.8333 18.0624H17V20.1874L21.25 20.1874C21.8368 20.1874 22.3125 20.6631 22.3125 21.2499C22.3125 21.8367 21.8368 22.3124 21.25 22.3124L17 22.3124V24.4374H19.8333C20.4201 24.4374 20.8958 24.9131 20.8958 25.4999C20.8958 26.0867 20.4201 26.5624 19.8333 26.5624H17.0024C17.0168 28.5414 17.1182 29.625 17.8299 30.3367Z" fill="#CE7D63"/>
<path d="M11.334 21.524L11.334 10.22C10.2446 10.6691 8.80758 11.0542 7.08424 11.0542C5.36064 11.0542 3.92345 10.6689 2.83398 10.2198L2.83399 21.524C2.83399 22.4061 2.83399 22.8472 2.88749 23.2801C2.9506 23.7906 3.06915 24.2928 3.24104 24.7777C3.38675 25.1888 3.58401 25.5833 3.97852 26.3723L6.05888 30.533C6.25302 30.9213 6.64987 31.1666 7.08398 31.1666C7.5181 31.1666 7.91495 30.9213 8.10909 30.533L10.1895 26.3723C10.584 25.5833 10.7812 25.1888 10.9269 24.7777C11.0988 24.2928 11.2174 23.7906 11.2805 23.2801C11.334 22.8472 11.334 22.4061 11.334 21.524Z" fill="#CE7D63"/>
<path d="M11.334 7.08325C11.334 4.73604 9.43119 2.83325 7.08398 2.83325C4.73677 2.83325 2.83398 4.73604 2.83398 7.08325L2.83398 8.43902C2.8713 8.45777 2.90934 8.47657 2.94812 8.49537C3.91277 8.96307 5.32042 9.43311 7.08424 9.43311C8.84807 9.43311 10.2557 8.96307 11.2204 8.49537C11.259 8.47665 11.2968 8.45795 11.334 8.43928V7.08325Z" fill="#CE7D63"/>
</svg>
