<svg width="34" height="34" viewBox="0 0 34 34" fill="none" xmlns="http://www.w3.org/2000/svg">
<path fill-rule="evenodd" clip-rule="evenodd" d="M4.25 14.7568C4.25 10.2269 4.25 7.96198 4.78481 7.2C5.31963 6.43802 7.44929 5.70902 11.7086 4.25104L12.5201 3.97327C14.7404 3.21326 15.8505 2.83325 17 2.83325C18.1495 2.83325 19.2596 3.21326 21.4799 3.97327L22.2914 4.25104C26.5507 5.70902 28.6804 6.43802 29.2152 7.2C29.75 7.96198 29.75 10.2269 29.75 14.7568V16.9877C29.75 24.975 23.7448 28.851 19.977 30.4969C18.955 30.9434 18.444 31.1666 17 31.1666C15.556 31.1666 15.045 30.9434 14.023 30.4969C10.2552 28.851 4.25 24.975 4.25 16.9877V14.7568ZM19.8333 12.7499C19.8333 14.3147 18.5648 15.5833 17 15.5833C15.4352 15.5833 14.1667 14.3147 14.1667 12.7499C14.1667 11.1851 15.4352 9.91659 17 9.91659C18.5648 9.91659 19.8333 11.1851 19.8333 12.7499ZM17 24.0833C22.6667 24.0833 22.6667 22.8147 22.6667 21.2499C22.6667 19.6851 20.1296 18.4166 17 18.4166C13.8704 18.4166 11.3333 19.6851 11.3333 21.2499C11.3333 22.8147 11.3333 24.0833 17 24.0833Z" fill="#CE7D63"/>
</svg>
