<svg width="34" height="34" viewBox="0 0 34 34" fill="none" xmlns="http://www.w3.org/2000/svg">
<path d="M12.9676 7.66178C14.7621 4.44276 15.6593 2.83325 17.0007 2.83325C18.342 2.83325 19.2393 4.44276 21.0337 7.66178L21.4979 8.49458C22.0078 9.40933 22.2628 9.8667 22.6603 10.1685C23.0578 10.4703 23.5529 10.5823 24.5431 10.8063L25.4446 11.0103C28.9292 11.7987 30.6715 12.1929 31.086 13.5259C31.5005 14.8588 30.3127 16.2478 27.9372 19.0256L27.3226 19.7443C26.6475 20.5337 26.31 20.9284 26.1582 21.4167C26.0063 21.905 26.0574 22.4316 26.1594 23.4848L26.2523 24.4436C26.6115 28.1499 26.7911 30.0031 25.7059 30.8269C24.6207 31.6507 22.9894 30.8996 19.7268 29.3974L18.8827 29.0088C17.9556 28.5819 17.492 28.3685 17.0007 28.3685C16.5093 28.3685 16.0457 28.5819 15.1186 29.0088L14.2745 29.3974C11.0119 30.8996 9.38065 31.6507 8.29544 30.8269C7.21024 30.0031 7.38981 28.1499 7.74896 24.4437L7.84188 23.4848C7.94394 22.4316 7.99497 21.905 7.84312 21.4167C7.69128 20.9284 7.35375 20.5337 6.6787 19.7443L6.06412 19.0256C3.68859 16.2478 2.50082 14.8588 2.91533 13.5259C3.32984 12.1929 5.07212 11.7987 8.55666 11.0103L9.45816 10.8063C10.4484 10.5823 10.9435 10.4703 11.341 10.1685C11.7385 9.8667 11.9935 9.40933 12.5034 8.49458L12.9676 7.66178Z" fill="#CE7D63"/>
</svg>
