<svg width="34" height="34" viewBox="0 0 34 34" fill="none" xmlns="http://www.w3.org/2000/svg">
<path fill-rule="evenodd" clip-rule="evenodd" d="M17 31.1666C24.0416 31.1666 29.75 25.4582 29.75 18.4166C29.75 11.375 24.0416 5.66659 17 5.66659C9.95837 5.66659 4.25 11.375 4.25 18.4166C4.25 25.4582 9.95837 31.1666 17 31.1666ZM17 11.6874C17.5868 11.6874 18.0625 12.1631 18.0625 12.7499V18.4166C18.0625 19.0034 17.5868 19.4791 17 19.4791C16.4132 19.4791 15.9375 19.0034 15.9375 18.4166V12.7499C15.9375 12.1631 16.4132 11.6874 17 11.6874Z" fill="#CE7D63"/>
<path fill-rule="evenodd" clip-rule="evenodd" d="M13.1042 2.83325C13.1042 2.24645 13.5799 1.77075 14.1667 1.77075H19.8333C20.4201 1.77075 20.8958 2.24645 20.8958 2.83325C20.8958 3.42005 20.4201 3.89575 19.8333 3.89575H14.1667C13.5799 3.89575 13.1042 3.42005 13.1042 2.83325Z" fill="#CE7D63"/>
</svg>
