<svg width="34" height="34" viewBox="0 0 34 34" fill="none" xmlns="http://www.w3.org/2000/svg">
<path fill-rule="evenodd" clip-rule="evenodd" d="M31.1667 17C31.1667 24.8241 24.8241 31.1667 17 31.1667C9.17601 31.1667 2.83337 24.8241 2.83337 17C2.83337 9.17601 9.17601 2.83337 17 2.83337C24.8241 2.83337 31.1667 9.17601 31.1667 17ZM19.1081 9.13174C19.6749 9.28362 20.0113 9.86623 19.8594 10.433L16.1928 24.117C16.0409 24.6838 15.4583 25.0202 14.8915 24.8683C14.3247 24.7164 13.9884 24.1338 14.1402 23.567L17.8068 9.88304C17.9587 9.31624 18.5413 8.97987 19.1081 9.13174ZM21.2071 11.9987C21.622 11.5838 22.2947 11.5838 22.7097 11.9987L23.0048 12.2939C23.9049 13.1939 24.6554 13.9444 25.1711 14.6203C25.7155 15.3337 26.0973 16.0875 26.0973 17C26.0973 17.9126 25.7155 18.6663 25.1711 19.3798C24.6554 20.0557 23.9049 20.8062 23.0049 21.7062L22.7097 22.0013C22.2947 22.4163 21.622 22.4163 21.2071 22.0013C20.7921 21.5864 20.7921 20.9137 21.2071 20.4987L21.4501 20.2557C22.4158 19.29 23.0629 18.6397 23.4817 18.0908C23.8818 17.5664 23.9723 17.2611 23.9723 17C23.9723 16.739 23.8818 16.4337 23.4817 15.9093C23.0629 15.3604 22.4158 14.7101 21.4501 13.7444L21.2071 13.5013C20.7921 13.0864 20.7921 12.4137 21.2071 11.9987ZM11.2907 11.9987C11.7056 11.5838 12.3783 11.5838 12.7933 11.9987C13.2082 12.4137 13.2082 13.0864 12.7933 13.5013L12.5502 13.7444C11.5845 14.7101 10.9374 15.3604 10.5186 15.9093C10.1185 16.4337 10.0281 16.739 10.0281 17C10.0281 17.2611 10.1185 17.5664 10.5186 18.0908C10.9374 18.6397 11.5845 19.29 12.5502 20.2557L12.7933 20.4987C13.2082 20.9137 13.2082 21.5864 12.7933 22.0013C12.3783 22.4163 11.7056 22.4163 11.2907 22.0013L10.9955 21.7062C10.0954 20.8062 9.34491 20.0557 8.8292 19.3798C8.28487 18.6663 7.90308 17.9126 7.90308 17C7.90308 16.0875 8.28487 15.3337 8.8292 14.6203C9.34491 13.9444 10.0955 13.1939 10.9955 12.2939L11.2907 11.9987Z" fill="#CE7D63"/>
</svg>
