<svg width="34" height="34" viewBox="0 0 34 34" fill="none" xmlns="http://www.w3.org/2000/svg">
<path d="M5.73099 7.7799L7.7799 5.73098C9.71164 3.79924 10.6775 2.83337 11.8777 2.83337C13.078 2.83337 14.0438 3.79924 15.9756 5.73098L12.5607 9.14585L5.73099 15.9756L5.73097 15.9756C3.79924 14.0438 2.83337 13.078 2.83337 11.8777C2.83337 10.6775 3.79924 9.71164 5.73098 7.77991L5.73099 7.7799Z" fill="#CE7D63"/>
<path d="M28.2691 26.2202L26.2202 28.2691C24.2884 30.2008 23.3226 31.1667 22.1223 31.1667C20.9221 31.1667 19.9563 30.2008 18.0245 28.2691L18.0245 28.2691L24.8542 21.4394L28.2691 18.0245C30.2008 19.9562 31.1667 20.9221 31.1667 22.1223C31.1667 23.3226 30.2008 24.2884 28.2691 26.2202Z" fill="#CE7D63"/>
<path d="M16.1502 25.7284L16.1502 25.7284L26.6276 15.2509C25.2017 14.6574 23.5127 13.6825 21.9154 12.0852C20.3178 10.4876 19.3428 8.79836 18.7494 7.37223L8.27171 17.8499L8.27166 17.85C7.45406 18.6675 7.04523 19.0764 6.69365 19.5271C6.2789 20.0589 5.92332 20.6342 5.63319 21.243C5.38725 21.7591 5.20441 22.3075 4.83875 23.4045L2.91051 29.1893C2.73056 29.7291 2.87106 30.3243 3.27343 30.7266C3.67581 31.129 4.27098 31.2695 4.81082 31.0896L10.5955 29.1613C11.6925 28.7957 12.241 28.6128 12.7571 28.3669C13.3659 28.0768 13.9412 27.7212 14.4729 27.3064C14.9237 26.9549 15.3326 26.546 16.1502 25.7284Z" fill="#CE7D63"/>
<path d="M29.535 12.3435C31.7106 10.168 31.7106 6.64064 29.535 4.46506C27.3594 2.28948 23.8321 2.28948 21.6565 4.46506L20.3999 5.7217C20.4171 5.77366 20.435 5.82634 20.4535 5.87971C20.9141 7.20733 21.7831 8.94772 23.418 10.5826C25.0528 12.2174 26.7932 13.0865 28.1208 13.5471C28.174 13.5655 28.2264 13.5833 28.2781 13.6004L29.535 12.3435Z" fill="#CE7D63"/>
</svg>
