<svg width="34" height="34" viewBox="0 0 34 34" fill="none" xmlns="http://www.w3.org/2000/svg">
<path fill-rule="evenodd" clip-rule="evenodd" d="M7.32648 4.4931C5.66675 6.15283 5.66675 8.82412 5.66675 14.1667V19.8334C5.66675 25.176 5.66675 27.8473 7.32648 29.507C8.9862 31.1667 11.6575 31.1667 17.0001 31.1667C22.3427 31.1667 25.014 31.1667 26.6737 29.507C28.3334 27.8473 28.3334 25.176 28.3334 19.8334V14.1667C28.3334 8.82412 28.3334 6.15283 26.6737 4.4931C25.014 2.83337 22.3427 2.83337 17.0001 2.83337C11.6575 2.83337 8.9862 2.83337 7.32648 4.4931ZM12.7501 6.02087C12.1633 6.02087 11.6876 6.49657 11.6876 7.08337C11.6876 7.67018 12.1633 8.14587 12.7501 8.14587H21.2501C21.8369 8.14587 22.3126 7.67018 22.3126 7.08337C22.3126 6.49657 21.8369 6.02087 21.2501 6.02087H12.7501ZM17.0001 26.9167C18.5649 26.9167 19.8334 25.6482 19.8334 24.0834C19.8334 22.5186 18.5649 21.25 17.0001 21.25C15.4353 21.25 14.1667 22.5186 14.1667 24.0834C14.1667 25.6482 15.4353 26.9167 17.0001 26.9167Z" fill="#CE7D63"/>
</svg>
