<svg width="34" height="34" viewBox="0 0 34 34" fill="none" xmlns="http://www.w3.org/2000/svg">
<path d="M2.83325 9.20837C2.83325 5.68756 5.68744 2.83337 9.20825 2.83337C12.7291 2.83337 15.5833 5.68756 15.5833 9.20837V13.4584C15.5833 13.9524 15.5833 14.1994 15.5289 14.4021C15.3816 14.9521 14.952 15.3817 14.402 15.5291C14.1993 15.5834 13.9523 15.5834 13.4583 15.5834H9.20825C5.68744 15.5834 2.83325 12.7292 2.83325 9.20837Z" fill="#CE7D63"/>
<path d="M18.4166 20.5417C18.4166 20.0477 18.4166 19.8006 18.4709 19.598C18.6183 19.048 19.0479 18.6184 19.5978 18.471C19.8005 18.4167 20.0475 18.4167 20.5416 18.4167H24.7916C28.3124 18.4167 31.1666 21.2709 31.1666 24.7917C31.1666 28.3125 28.3124 31.1667 24.7916 31.1667C21.2708 31.1667 18.4166 28.3125 18.4166 24.7917V20.5417Z" fill="#CE7D63"/>
<path d="M2.83325 24.7917C2.83325 21.2709 5.68744 18.4167 9.20825 18.4167H13.0333C13.9258 18.4167 14.3721 18.4167 14.713 18.5904C15.0129 18.7432 15.2567 18.987 15.4095 19.2869C15.5833 19.6278 15.5833 20.0741 15.5833 20.9667V24.7917C15.5833 28.3125 12.7291 31.1667 9.20825 31.1667C5.68744 31.1667 2.83325 28.3125 2.83325 24.7917Z" fill="#CE7D63"/>
<path d="M18.4166 9.20837C18.4166 5.68756 21.2708 2.83337 24.7916 2.83337C28.3124 2.83337 31.1666 5.68756 31.1666 9.20837C31.1666 12.7292 28.3124 15.5834 24.7916 15.5834H20.238C20.0266 15.5834 19.9208 15.5834 19.8319 15.5734C19.093 15.4901 18.5099 14.907 18.4266 14.1681C18.4166 14.0791 18.4166 13.9734 18.4166 13.7619V9.20837Z" fill="#CE7D63"/>
</svg>
